<?xml version="1.0" standalone="no"?>
<!DOCTYPE svg PUBLIC "-//W3C//DTD SVG 20010904//EN"
 "http://www.w3.org/TR/2001/REC-SVG-20010904/DTD/svg10.dtd">
<svg version="1.0" xmlns="http://www.w3.org/2000/svg"
 width="48pt" height="48pt" viewBox="0 0 5064.000000 5064.000000"
 preserveAspectRatio="xMidYMid meet">

<g transform="translate(0.000000,5064.000000) scale(0.100000,-0.100000)"
fill="#000000" stroke="none">
<path d="M25027 40484 c-1 -1 -31 -4 -67 -5 -36 -2 -71 -8 -79 -14 -11 -7 -13
-7 -8 2 5 8 0 10 -20 4 -16 -4 -35 -7 -43 -6 -8 0 -18 -4 -22 -10 -5 -7 -8 -6
-8 1 0 13 -48 6 -69 -10 -11 -8 -13 -8 -7 2 4 6 3 12 -1 12 -5 0 -15 -6 -22
-12 -9 -8 -12 -9 -7 -1 4 7 0 10 -11 8 -10 -2 -24 -4 -31 -4 -8 -1 -10 -6 -6
-13 6 -10 5 -10 -7 -1 -12 10 -18 10 -29 0 -10 -10 -11 -9 -5 1 6 11 3 12 -11
4 -11 -5 -25 -7 -33 -4 -10 3 -11 0 -5 -9 6 -11 5 -12 -8 -2 -8 7 -18 10 -21
7 -3 -4 -62 -8 -129 -10 -119 -3 -212 -10 -253 -18 -11 -3 -30 -5 -43 -5 -16
-1 -21 -5 -16 -13 5 -10 4 -10 -6 -1 -11 10 -18 9 -34 -5 -14 -12 -17 -13 -11
-2 8 13 7 13 -8 1 -9 -7 -17 -10 -17 -5 0 5 -5 2 -10 -6 -7 -11 -10 -11 -10
-2 0 7 -4 10 -10 7 -15 -9 -37 -12 -136 -20 -85 -6 -158 -14 -179 -20 -5 -1
-25 -6 -42 -10 -19 -4 -30 -12 -26 -18 3 -6 1 -7 -6 -3 -6 4 -19 2 -28 -6 -14
-11 -16 -11 -8 2 8 13 6 13 -8 1 -9 -7 -50 -15 -94 -17 -43 -3 -85 -6 -93 -8
-8 -1 -32 -6 -52 -11 -21 -4 -38 -12 -38 -18 0 -6 -3 -7 -7 -4 -3 4 -15 -1
-26 -10 -11 -10 -17 -12 -13 -5 7 11 4 12 -12 3 -11 -6 -51 -14 -88 -17 -38
-4 -75 -12 -83 -18 -12 -8 -13 -8 -7 2 9 14 -65 -17 -76 -33 -4 -5 -8 -6 -8
-1 0 5 -6 3 -13 -3 -8 -6 -17 -8 -20 -4 -4 3 -7 2 -7 -3 0 -6 -12 -9 -27 -9
-16 1 -34 -4 -42 -9 -12 -9 -13 -8 -6 3 5 10 4 12 -4 7 -6 -4 -24 -10 -38 -12
-37 -7 -96 -35 -105 -50 -5 -7 -18 -10 -30 -6 -16 4 -19 2 -13 -9 6 -11 5 -11
-4 -3 -16 15 -105 -1 -149 -27 -18 -10 -40 -19 -48 -19 -8 0 -13 -3 -11 -7 3
-5 -17 -9 -44 -11 -53 -2 -142 -38 -133 -53 3 -5 -3 -6 -12 -2 -10 3 -15 2
-12 -3 4 -5 -8 -9 -25 -10 -60 -1 -137 -28 -137 -47 0 -6 -3 -7 -7 -4 -3 4
-12 -1 -20 -11 -8 -9 -11 -11 -7 -3 5 10 3 12 -7 5 -8 -4 -18 -9 -24 -11 -11
-2 -61 -12 -78 -16 -18 -3 -46 -30 -41 -39 3 -4 -3 -5 -12 -1 -10 3 -15 2 -12
-3 4 -5 -6 -10 -20 -10 -47 -2 -69 -9 -134 -41 -35 -17 -82 -36 -104 -42 -23
-6 -54 -23 -69 -38 -16 -16 -25 -21 -20 -13 7 12 6 13 -6 3 -8 -7 -30 -15 -48
-18 -36 -6 -81 -32 -81 -47 0 -5 -4 -6 -10 -3 -5 3 -10 2 -10 -3 0 -5 -6 -9
-12 -10 -7 0 -22 -3 -33 -5 -11 -3 -26 -7 -34 -9 -22 -5 -48 -32 -43 -43 3 -5
2 -7 -3 -3 -4 4 -16 3 -27 -3 -11 -6 -32 -13 -46 -15 -15 -3 -30 -11 -34 -17
-4 -7 -8 -9 -8 -5 0 4 -12 -4 -26 -17 -15 -14 -33 -26 -40 -26 -8 -1 -18 -3
-24 -4 -5 -1 -14 -3 -18 -4 -13 -2 -57 -42 -55 -50 1 -3 -8 -7 -20 -8 -51 -5
-83 -21 -121 -58 -9 -9 -16 -14 -16 -11 0 12 -77 -29 -98 -53 -14 -14 -21 -20
-17 -12 5 9 1 9 -17 -3 -14 -9 -27 -14 -30 -11 -3 3 -17 -6 -31 -19 -14 -13
-29 -21 -33 -17 -4 3 -4 -2 -1 -12 4 -10 3 -16 -2 -12 -5 3 -12 1 -16 -5 -4
-6 -10 -8 -15 -5 -14 8 -51 -13 -79 -43 -13 -15 -20 -21 -16 -14 9 18 -64 -26
-104 -62 -19 -17 -31 -25 -26 -17 11 20 -45 -17 -74 -48 -13 -14 -20 -19 -15
-11 7 13 6 13 -10 0 -10 -8 -25 -15 -33 -16 -8 -1 -28 -16 -44 -33 -16 -17
-31 -31 -34 -31 -3 0 -10 0 -16 0 -5 0 -7 -4 -4 -10 3 -6 -1 -7 -9 -4 -9 3
-25 -4 -38 -19 -13 -13 -39 -32 -58 -42 -19 -10 -42 -25 -50 -34 -8 -10 -33
-28 -55 -41 -49 -30 -75 -56 -67 -66 4 -4 1 -4 -6 0 -14 9 -77 -27 -86 -49 -3
-8 -12 -15 -21 -15 -8 0 -15 -5 -15 -12 0 -6 -3 -8 -7 -5 -7 7 -39 -34 -36
-45 2 -4 -3 -5 -11 -2 -7 3 -35 -17 -62 -43 -26 -26 -44 -42 -39 -34 5 8 -10
2 -32 -15 -23 -16 -39 -32 -36 -36 2 -5 -3 -8 -11 -8 -9 0 -16 -5 -16 -11 0
-5 -4 -8 -8 -5 -5 3 -15 -3 -24 -12 -8 -9 -43 -42 -78 -72 -36 -30 -79 -69
-97 -87 -18 -17 -33 -29 -33 -27 0 3 -12 -7 -27 -21 -15 -14 -31 -25 -36 -25
-4 0 -5 -4 -2 -10 3 -5 0 -10 -7 -10 -8 0 -34 -19 -58 -41 -25 -23 -39 -38
-31 -34 10 6 12 4 7 -4 -4 -6 -11 -9 -15 -7 -10 7 -62 -39 -54 -48 3 -3 0 -6
-8 -6 -8 0 -33 -19 -54 -42 -22 -23 -34 -38 -26 -33 10 5 12 4 7 -4 -4 -6 -11
-9 -16 -6 -4 3 -27 -16 -51 -42 -23 -27 -39 -42 -34 -34 4 7 -37 -31 -93 -85
-55 -55 -98 -102 -95 -106 2 -5 -1 -8 -7 -8 -16 0 -126 -121 -122 -134 2 -6 1
-8 -3 -4 -8 8 -75 -56 -75 -71 0 -6 -7 -11 -16 -11 -8 0 -12 -4 -9 -10 3 -5
-1 -10 -10 -10 -9 0 -13 -4 -10 -10 3 -5 2 -10 -4 -10 -5 0 -13 -9 -16 -20 -4
-11 -11 -17 -17 -14 -8 5 -9 1 -5 -10 4 -9 3 -15 -2 -11 -6 3 -18 -6 -28 -21
-10 -14 -33 -41 -51 -60 -18 -19 -30 -34 -26 -34 4 0 -11 -18 -34 -40 -22 -22
-38 -40 -36 -40 3 0 -12 -18 -32 -40 -20 -22 -48 -56 -61 -75 -13 -19 -28 -35
-33 -35 -5 0 -12 -9 -15 -20 -3 -11 -12 -26 -18 -32 -34 -36 -76 -96 -70 -102
3 -3 -1 -6 -9 -6 -9 0 -30 -22 -48 -50 -18 -27 -36 -50 -41 -50 -8 0 -42 -57
-37 -63 5 -5 -27 -35 -33 -31 -3 2 -14 -14 -24 -36 -10 -22 -31 -54 -47 -72
-16 -18 -36 -48 -45 -65 -8 -18 -19 -31 -23 -28 -8 5 -24 -24 -22 -37 1 -5 -3
-8 -9 -8 -5 0 -8 -4 -5 -9 3 -5 -10 -25 -28 -45 -19 -20 -38 -46 -42 -58 -9
-30 -40 -69 -48 -61 -3 3 -6 2 -6 -4 0 -6 -8 -28 -17 -49 -9 -22 -16 -43 -15
-47 2 -5 -2 -6 -7 -3 -5 4 -19 -7 -31 -24 -12 -16 -18 -30 -14 -30 3 0 1 -7
-6 -15 -6 -8 -8 -20 -4 -26 4 -7 3 -10 -2 -7 -11 6 -45 -28 -36 -36 3 -3 0 -6
-6 -6 -6 0 -17 -18 -23 -40 -7 -22 -16 -37 -22 -33 -6 4 -8 0 -4 -11 4 -10 3
-15 -3 -11 -5 3 -16 -8 -25 -25 -8 -16 -13 -30 -9 -30 4 0 1 -7 -6 -15 -6 -8
-9 -19 -5 -25 4 -6 1 -9 -7 -8 -7 2 -12 -3 -10 -10 1 -8 -2 -11 -7 -7 -11 6
-41 -45 -41 -69 0 -8 -11 -26 -24 -39 -14 -14 -22 -28 -19 -31 4 -3 1 -6 -5
-6 -10 0 -28 -55 -24 -72 1 -5 -3 -8 -9 -8 -5 0 -7 -4 -4 -10 3 -5 1 -10 -5
-10 -6 0 -8 -5 -4 -12 4 -6 3 -8 -3 -5 -6 4 -17 -1 -24 -10 -12 -14 -12 -16 1
-8 12 6 11 4 -2 -11 -9 -10 -18 -30 -20 -44 -1 -14 -10 -32 -19 -40 -17 -16
-41 -57 -46 -77 -9 -37 -12 -48 -13 -53 -1 -3 -2 -9 -1 -13 1 -5 -3 -6 -9 -2
-5 3 -10 -1 -10 -10 0 -9 -4 -14 -9 -11 -8 5 -34 -62 -34 -89 0 -8 -4 -15 -9
-15 -5 0 -7 -4 -4 -8 3 -5 -4 -14 -14 -22 -10 -8 -17 -17 -14 -22 3 -4 1 -8
-5 -8 -9 0 -26 -56 -19 -63 2 -2 -4 -12 -12 -22 -13 -17 -13 -18 0 -11 8 4 5
-1 -7 -12 -12 -11 -19 -22 -16 -26 4 -3 1 -6 -5 -6 -14 0 -32 -51 -35 -97 0
-13 -5 -23 -11 -23 -5 0 -7 -3 -3 -6 3 -3 -5 -18 -18 -32 -20 -22 -44 -95 -33
-105 1 -1 -5 -16 -16 -31 -11 -17 -13 -25 -5 -20 8 4 3 -4 -11 -19 -14 -14
-25 -30 -26 -34 0 -4 -4 -15 -7 -23 -6 -14 -17 -70 -19 -97 -1 -7 -6 -9 -11
-6 -6 4 -8 -1 -4 -11 4 -9 3 -15 -2 -12 -5 3 -15 -2 -22 -11 -12 -14 -12 -15
0 -9 9 6 8 1 -3 -16 -9 -13 -17 -46 -19 -72 -2 -26 -8 -51 -13 -55 -13 -9 -46
-71 -38 -71 3 0 1 -6 -5 -14 -6 -7 -12 -32 -14 -55 -1 -22 -6 -41 -11 -41 -5
0 -6 -3 -3 -7 4 -3 0 -17 -8 -30 -9 -13 -13 -29 -9 -35 4 -6 3 -8 -4 -4 -14 8
-28 -35 -36 -111 -2 -17 -7 -37 -11 -44 -5 -8 -4 -10 3 -5 8 5 10 2 6 -8 -3
-9 -11 -16 -18 -16 -6 0 -4 -5 4 -10 10 -6 11 -10 3 -10 -29 0 -53 -67 -57
-162 -1 -25 -7 -52 -13 -60 -12 -15 -28 -59 -25 -70 1 -5 -2 -8 -8 -8 -6 0 -9
-3 -9 -7 1 -5 0 -10 -1 -13 -5 -14 -11 -50 -14 -91 -2 -26 -7 -52 -11 -59 -5
-9 -4 -11 3 -6 8 5 10 2 6 -8 -3 -9 -11 -16 -18 -16 -6 0 -4 -5 4 -10 12 -8
12 -10 1 -10 -8 0 -11 -7 -8 -20 3 -11 2 -18 -2 -15 -5 2 -13 -7 -20 -21 -9
-20 -9 -24 1 -18 10 6 10 4 0 -8 -15 -19 -22 -51 -26 -123 -2 -29 -7 -58 -11
-65 -6 -9 -4 -11 4 -5 10 6 11 3 2 -14 -7 -11 -9 -21 -5 -21 3 0 0 -8 -7 -17
-12 -14 -12 -16 0 -8 11 6 10 2 -2 -21 -9 -16 -19 -42 -23 -59 -10 -40 -11
-45 -14 -47 -4 -5 -8 -50 -14 -141 -7 -104 -8 -110 -21 -119 -6 -5 -4 -8 5 -8
13 0 13 -1 0 -10 -13 -9 -13 -10 0 -10 13 0 13 -2 1 -9 -8 -5 -16 -20 -17 -33
-2 -12 -5 -32 -6 -43 -2 -11 -7 -23 -13 -27 -6 -5 -4 -8 5 -8 11 0 12 -3 3 -8
-16 -10 -23 -72 -28 -221 -2 -67 -6 -125 -9 -128 -3 -3 -1 -14 4 -24 7 -11 7
-20 0 -24 -5 -3 -7 -12 -3 -20 3 -9 0 -22 -6 -29 -8 -10 -9 -16 -1 -21 6 -3 7
-12 3 -18 -10 -17 -13 -38 -4 -32 4 2 8 -2 8 -10 0 -8 -4 -12 -9 -9 -4 3 -8 0
-8 -5 0 -6 6 -11 13 -11 8 0 8 -3 -2 -9 -8 -5 -16 -17 -17 -25 -1 -9 1 -14 6
-11 5 3 7 -3 5 -12 -2 -10 -4 -22 -4 -26 -1 -5 -5 -6 -9 -3 -4 2 -8 -6 -8 -19
0 -14 4 -21 11 -17 6 3 6 0 -1 -9 -16 -20 -25 -61 -12 -52 7 3 8 1 4 -6 -14
-21 -17 -63 -5 -56 6 4 5 -3 -4 -16 -12 -20 -14 -83 -11 -394 4 -447 6 -498
19 -507 6 -5 6 -8 -1 -8 -14 0 -8 -61 7 -71 8 -4 7 -8 -2 -12 -8 -3 -9 -6 -3
-6 7 -1 9 -12 6 -27 -3 -16 -1 -25 5 -21 5 3 10 0 10 -8 0 -8 -4 -12 -8 -9 -4
2 -6 -8 -3 -23 3 -15 11 -31 17 -35 9 -5 8 -8 -3 -8 -13 0 -13 -1 0 -10 13 -9
13 -10 0 -10 -13 0 -13 -1 0 -10 13 -9 13 -10 0 -10 -10 0 -11 -3 -4 -8 6 -4
10 -20 9 -35 -1 -15 2 -30 7 -33 5 -3 4 -12 -3 -20 -9 -11 -8 -14 2 -14 11 0
11 -2 -1 -10 -10 -6 -11 -10 -3 -10 9 0 10 -7 3 -24 -5 -13 -6 -27 -3 -30 3
-3 8 -56 9 -117 2 -61 6 -128 10 -148 3 -20 6 -42 7 -48 0 -7 4 -13 8 -13 5 0
5 -7 2 -17 -5 -12 -3 -14 8 -8 12 7 12 6 1 -7 -11 -14 -10 -18 5 -27 10 -6 13
-11 6 -11 -6 0 -9 -9 -6 -20 3 -11 10 -17 15 -14 6 4 5 -4 -2 -16 -8 -16 -9
-20 -1 -15 8 4 10 -3 6 -25 -3 -17 -2 -29 2 -27 5 3 8 -25 9 -61 1 -94 11
-161 26 -180 11 -13 11 -14 -2 -7 -13 8 -13 6 -2 -8 8 -9 10 -22 6 -28 -4 -7
-3 -9 3 -6 6 4 14 0 17 -9 9 -24 7 -31 -4 -14 -6 9 -10 10 -10 3 0 -7 8 -17
18 -22 13 -8 14 -10 2 -11 -12 0 -12 -2 -2 -9 8 -4 13 -11 13 -15 -1 -3 -1 -7
-1 -8 1 -2 3 -39 5 -83 3 -44 7 -91 11 -105 3 -14 6 -31 6 -37 1 -7 5 -13 10
-13 5 0 6 -4 3 -10 -3 -5 -1 -10 6 -10 7 0 10 -3 6 -6 -3 -4 1 -13 9 -21 11
-12 12 -18 3 -29 -9 -11 -7 -15 6 -20 13 -5 14 -9 3 -15 -7 -5 -8 -9 -3 -9 6
0 11 -23 13 -52 3 -71 9 -97 24 -116 11 -13 11 -15 -2 -8 -8 4 -4 -2 9 -13 15
-13 18 -21 10 -22 -8 0 -5 -4 6 -9 14 -6 15 -9 5 -10 -12 0 -11 -3 3 -11 13
-8 15 -14 7 -29 -6 -10 -7 -21 -2 -24 4 -2 9 -17 10 -33 2 -27 8 -63 12 -73 1
-3 2 -8 1 -12 0 -5 4 -8 10 -8 5 0 7 -4 4 -10 -3 -5 -1 -10 4 -10 6 0 10 -6 8
-12 -1 -7 3 -12 9 -11 8 1 10 -6 6 -19 -4 -16 -2 -19 9 -13 12 8 12 6 0 -8 -7
-9 -9 -17 -4 -17 5 0 9 -12 9 -27 0 -47 15 -113 27 -113 5 0 8 -3 4 -6 -3 -3
4 -15 15 -26 11 -11 17 -26 14 -34 -3 -8 -2 -14 2 -14 4 0 8 -20 9 -43 1 -24
8 -57 14 -73 7 -16 11 -33 10 -37 -1 -5 3 -6 9 -2 5 3 10 -1 10 -10 0 -9 4
-13 10 -10 6 4 7 -1 3 -11 -4 -10 -2 -15 4 -11 5 3 10 0 10 -8 0 -8 -5 -11
-11 -8 -8 5 -8 3 -1 -8 6 -8 12 -27 14 -43 2 -17 8 -41 14 -55 5 -14 10 -29 9
-33 -1 -3 6 -12 16 -20 16 -12 16 -11 2 7 -14 19 -14 19 3 6 9 -8 15 -16 12
-19 -3 -3 1 -12 8 -20 10 -13 9 -14 -2 -7 -11 6 -12 5 -5 -6 4 -8 10 -23 12
-34 2 -11 5 -27 7 -35 2 -8 4 -18 4 -22 1 -3 13 -21 28 -40 15 -18 21 -28 12
-23 -13 9 -13 8 1 -5 8 -8 16 -24 17 -35 2 -34 8 -59 16 -72 5 -7 5 -13 0 -13
-4 0 3 -7 15 -16 12 -8 22 -22 22 -30 0 -8 3 -13 8 -11 4 3 8 -10 9 -29 2 -36
51 -136 63 -129 4 2 7 -2 7 -10 0 -8 -5 -12 -10 -8 -5 3 -2 -5 6 -18 9 -13 16
-28 17 -34 1 -22 12 -45 21 -45 6 0 7 -4 4 -10 -3 -5 2 -10 12 -10 15 0 16 -2
3 -10 -13 -9 -13 -10 1 -10 9 0 15 -9 16 -22 2 -38 12 -71 24 -78 6 -4 11 -11
11 -16 0 -5 4 -8 9 -7 5 2 8 -3 6 -10 -1 -6 3 -11 9 -10 5 1 11 -8 11 -20 2
-39 35 -117 49 -117 3 0 2 5 -1 10 -3 6 -4 10 -1 10 3 0 10 -10 17 -21 7 -14
7 -19 0 -15 -5 4 -4 -6 4 -20 8 -15 12 -31 9 -36 -3 -4 0 -8 7 -8 7 0 9 -3 6
-7 -4 -3 2 -12 13 -20 11 -8 20 -21 20 -29 0 -8 4 -13 9 -9 6 3 8 -4 6 -15 -2
-11 0 -20 5 -20 4 0 7 -8 6 -17 -3 -18 -1 -21 39 -67 22 -26 30 -45 26 -68 0
-5 4 -8 10 -8 5 0 7 -4 4 -10 -3 -5 -1 -10 5 -10 6 0 8 -4 5 -10 -3 -5 1 -10
9 -10 8 0 18 -5 22 -12 5 -7 3 -8 -7 -3 -9 5 -8 2 3 -11 9 -10 20 -31 23 -46
4 -16 11 -28 17 -28 5 0 6 -4 3 -10 -3 -5 1 -10 10 -10 9 0 13 -4 10 -10 -3
-5 1 -10 9 -10 9 0 13 -7 11 -20 -2 -11 1 -20 6 -20 6 0 8 -4 5 -9 -4 -5 10
-25 29 -45 19 -20 34 -39 34 -41 -2 -16 22 -65 45 -90 14 -15 26 -33 26 -40 0
-15 55 -86 62 -80 3 3 5 -1 5 -7 1 -28 9 -44 35 -70 14 -14 24 -29 20 -32 -3
-3 0 -6 7 -6 7 0 9 -4 6 -10 -3 -5 -3 -10 2 -10 4 0 14 -14 21 -30 8 -17 18
-28 23 -24 5 3 9 -2 9 -11 0 -9 5 -13 10 -10 6 4 9 3 8 -2 -5 -18 16 -59 44
-85 16 -15 29 -31 29 -35 1 -17 33 -62 41 -57 4 3 8 -2 8 -11 0 -9 5 -13 10
-10 6 4 9 3 8 -2 -1 -4 3 -18 10 -30 7 -13 10 -23 7 -23 -3 0 3 -8 12 -18 10
-11 21 -17 24 -16 4 2 12 -9 18 -24 6 -15 27 -43 46 -63 19 -20 31 -39 28 -43
-4 -3 -1 -6 6 -6 7 0 9 -4 6 -10 -3 -5 -3 -10 2 -10 4 0 19 -10 33 -21 14 -11
18 -18 10 -14 -10 4 -9 1 3 -8 9 -8 17 -17 17 -21 0 -4 13 -20 29 -35 16 -16
27 -32 24 -35 -4 -3 -1 -6 5 -6 7 0 11 -3 10 -7 -2 -5 5 -19 15 -33 9 -13 17
-21 17 -16 0 5 13 -9 29 -30 15 -21 44 -57 65 -78 20 -22 36 -44 36 -49 0 -4
5 -5 10 -2 6 3 10 0 10 -7 0 -7 18 -30 40 -50 22 -21 38 -38 36 -38 -3 0 5
-12 17 -26 49 -57 75 -82 82 -76 4 4 6 2 4 -3 -4 -16 12 -45 22 -39 5 3 9 -2
9 -11 0 -9 5 -13 10 -10 6 3 10 0 10 -8 0 -7 17 -29 38 -48 20 -19 46 -47 57
-62 11 -15 26 -27 34 -27 8 0 12 -3 9 -6 -8 -8 135 -153 144 -148 5 3 8 1 8
-5 0 -14 47 -60 54 -53 3 3 6 0 6 -7 0 -13 44 -61 56 -61 4 0 26 -20 49 -45
23 -24 45 -42 48 -39 3 3 8 -3 11 -14 4 -10 18 -25 31 -32 14 -7 25 -17 25
-22 0 -5 5 -6 10 -3 6 3 10 1 10 -5 0 -6 7 -18 15 -26 8 -9 15 -13 15 -10 0 5
62 -49 131 -114 21 -19 61 -55 90 -80 28 -25 72 -63 97 -85 25 -22 42 -33 37
-25 -4 8 10 -1 31 -21 21 -19 51 -41 66 -49 15 -7 25 -17 22 -22 -3 -4 -1 -8
3 -8 5 0 21 -11 36 -25 15 -14 27 -23 27 -20 0 3 16 -10 35 -30 20 -19 39 -35
44 -35 4 0 23 -14 41 -30 19 -17 45 -33 57 -36 13 -4 23 -10 23 -16 0 -5 5 -6
10 -3 6 3 10 -1 10 -9 0 -13 48 -47 65 -46 10 0 42 -35 38 -42 -2 -5 3 -8 11
-8 9 0 16 -5 16 -12 0 -6 3 -8 7 -5 3 4 18 -3 32 -15 22 -20 23 -20 12 -3 -8
11 -1 6 15 -11 16 -17 38 -34 50 -38 11 -3 38 -22 59 -41 21 -18 42 -32 46
-29 4 2 10 0 14 -6 4 -6 11 -8 16 -5 5 4 9 1 9 -5 0 -6 5 -8 10 -5 6 3 10 -1
10 -10 0 -9 5 -13 10 -10 5 3 10 -1 10 -10 0 -9 5 -13 10 -10 6 3 10 1 10 -5
0 -6 5 -8 10 -5 6 3 10 1 10 -5 0 -6 4 -9 9 -6 10 7 46 -19 46 -33 0 -6 3 -10
6 -8 3 1 13 -4 22 -12 10 -7 17 -10 17 -6 0 5 10 0 22 -11 14 -13 19 -14 14
-4 -4 8 9 -3 30 -25 20 -22 33 -33 29 -25 -7 12 -6 13 6 3 8 -6 23 -13 34 -15
11 -1 26 -10 33 -18 12 -13 13 -13 6 0 -4 8 7 0 25 -19 17 -19 31 -31 31 -27
0 5 7 3 15 -4 8 -7 15 -9 15 -5 0 4 6 2 13 -4 8 -6 17 -8 20 -4 4 3 7 0 7 -8
0 -17 54 -52 64 -42 3 3 6 2 6 -3 0 -5 9 -10 20 -11 11 -1 34 -16 51 -32 17
-17 35 -29 40 -25 5 3 9 1 9 -4 0 -5 10 -8 23 -7 13 1 34 -10 53 -30 18 -17
38 -32 45 -33 39 -2 73 -15 92 -34 12 -11 16 -17 8 -13 -10 5 -12 4 -7 -4 4
-6 11 -9 16 -6 5 3 11 1 15 -5 3 -5 16 -10 29 -10 12 0 28 -6 35 -13 11 -10
13 -9 7 3 -4 8 2 4 14 -10 12 -14 18 -19 14 -11 -5 9 -3 12 4 7 7 -4 12 -14
12 -22 0 -8 5 -12 10 -9 6 3 10 2 10 -3 0 -5 6 -9 13 -9 6 0 26 -4 42 -8 17
-3 35 -7 42 -7 7 -1 11 -4 9 -7 -2 -3 2 -12 10 -19 8 -7 14 -10 14 -7 0 4 7
-1 16 -9 8 -9 29 -16 45 -16 16 0 29 -5 29 -12 0 -9 4 -8 10 2 7 11 10 11 10
2 0 -7 5 -10 10 -7 6 3 10 -1 10 -9 0 -8 5 -18 12 -22 7 -5 9 -2 4 7 -4 8 0 5
9 -6 9 -11 18 -19 20 -17 3 1 6 2 8 1 5 -1 33 -8 56 -13 12 -3 30 -11 39 -18
13 -11 14 -11 7 2 -8 13 -6 13 8 1 9 -7 14 -17 11 -22 -3 -5 -2 -9 3 -8 18 3
34 -1 29 -9 -2 -4 5 -9 17 -10 37 -4 52 -7 66 -16 10 -7 12 -5 6 3 -5 8 4 7
23 -3 17 -9 35 -24 41 -33 5 -10 12 -17 15 -15 3 1 7 2 9 1 18 -6 108 -22 124
-22 7 0 10 -4 7 -9 -3 -4 2 -8 11 -8 8 0 18 -7 21 -15 4 -8 10 -12 15 -9 5 3
9 1 9 -4 0 -5 6 -9 13 -10 51 -6 76 -10 87 -17 9 -6 11 -4 5 4 -6 10 -3 11 11
3 11 -6 24 -11 29 -12 18 -4 45 -27 40 -33 -3 -4 -2 -5 1 -2 4 2 21 -2 38 -9
17 -7 46 -12 64 -11 17 0 32 -3 32 -8 0 -4 4 -6 9 -3 5 3 11 -1 15 -9 3 -9 12
-12 22 -8 13 5 15 3 9 -7 -5 -8 -4 -11 3 -6 6 3 16 1 24 -6 16 -16 32 -20 79
-23 20 -1 42 -5 49 -10 9 -6 11 -4 4 6 -5 9 2 8 20 -5 16 -10 25 -13 21 -6 -6
9 -3 9 14 1 11 -7 21 -14 21 -17 0 -3 -5 -2 -12 2 -7 4 -8 3 -4 -4 4 -6 13 -9
21 -5 8 3 15 0 15 -6 0 -6 3 -10 8 -10 4 1 9 0 12 -1 14 -5 50 -11 94 -15 27
-3 55 -10 62 -16 8 -7 14 -6 20 2 5 8 13 4 26 -12 11 -13 17 -17 13 -9 -4 8 1
6 10 -5 9 -11 18 -19 20 -17 3 1 6 2 8 1 20 -6 50 -11 83 -13 23 -2 47 -7 54
-11 8 -5 11 -4 7 3 -5 6 0 8 13 5 11 -3 17 -10 13 -17 -4 -6 1 -5 10 3 12 9
17 10 17 2 0 -7 4 -10 9 -7 5 4 12 0 14 -6 4 -9 6 -9 6 1 1 11 5 10 17 -5 8
-10 13 -12 9 -4 -6 13 -5 13 7 0 7 -8 20 -17 28 -18 8 -2 24 -6 35 -9 11 -3
43 -6 71 -7 28 -2 57 -7 64 -11 9 -6 11 -4 5 6 -7 11 -6 12 7 2 8 -7 18 -10
21 -6 4 3 13 0 21 -6 10 -9 16 -9 21 -1 5 8 14 6 28 -7 11 -10 17 -12 13 -6
-5 9 -2 11 8 7 9 -3 13 -11 9 -18 -4 -6 0 -6 9 2 13 10 18 10 24 1 5 -8 3 -10
-7 -4 -8 5 -11 4 -6 -1 5 -5 17 -10 28 -10 10 -1 20 -2 22 -4 8 -7 115 -18
215 -22 17 -1 32 -6 32 -12 0 -6 5 -4 10 4 8 12 10 12 10 1 0 -10 3 -11 14 -2
11 9 16 9 22 0 5 -8 3 -10 -7 -4 -8 5 -10 4 -6 0 10 -12 39 -16 32 -5 -7 11
22 7 32 -5 4 -4 2 -5 -6 0 -10 6 -12 4 -7 -4 6 -9 11 -9 21 -1 10 8 15 8 21
-1 5 -8 3 -10 -7 -4 -8 5 -10 4 -6 0 12 -14 38 -15 30 -2 -5 9 -3 9 8 0 26
-21 127 -30 357 -34 52 0 70 -4 65 -12 -4 -7 -1 -7 9 1 11 9 18 10 23 2 3 -6
12 -7 18 -3 20 12 47 10 58 -4 9 -10 15 -10 25 -2 11 9 14 8 14 -2 0 -12 2
-12 9 -1 7 11 9 11 14 -1 5 -14 41 -17 53 -4 4 4 13 2 21 -4 10 -9 13 -8 13 2
0 12 2 12 9 0 9 -14 19 -15 251 -27 304 -15 811 -3 850 21 8 5 11 4 6 -3 -3
-6 1 -9 11 -7 10 2 22 4 26 4 5 1 5 7 1 14 -6 9 -4 9 8 -1 13 -10 17 -10 21 0
4 10 6 9 6 -1 1 -11 5 -10 17 5 8 10 13 14 10 8 -8 -15 21 -26 30 -12 5 7 2 8
-7 3 -8 -5 -10 -4 -6 0 10 12 39 16 32 5 -7 -12 20 -6 37 8 11 9 17 9 26 0 9
-9 12 -9 12 2 0 13 2 13 10 0 8 -12 10 -12 10 -1 0 10 3 11 13 2 8 -6 17 -8
21 -4 3 4 16 8 27 10 14 2 18 -1 13 -9 -6 -10 -4 -10 8 0 9 7 33 13 55 12 69
-1 268 9 293 15 14 3 30 7 35 8 6 2 16 7 24 11 10 7 12 5 7 -5 -4 -8 0 -5 8 5
12 15 16 16 16 5 0 -12 2 -12 9 0 7 11 9 11 14 0 3 -9 6 -7 6 6 1 17 3 17 11
5 8 -12 10 -12 10 -1 0 11 3 11 15 1 12 -10 16 -9 21 5 5 13 9 14 15 3 7 -11
9 -11 9 1 0 11 3 11 17 0 14 -12 16 -12 8 0 -6 11 -4 13 8 8 10 -3 17 -3 17 1
0 4 39 8 88 8 96 2 139 9 161 27 12 10 13 9 6 -3 -4 -8 3 -5 17 8 18 16 28 20
33 12 5 -8 11 -8 23 2 10 8 24 14 32 13 8 -1 25 2 38 7 17 6 21 5 16 -4 -4 -7
-3 -8 4 -4 6 4 33 9 59 11 44 4 62 7 103 17 8 1 21 10 28 18 12 13 13 13 6 0
-5 -11 -1 -10 13 3 16 14 22 15 26 5 3 -8 6 -5 6 7 1 17 3 17 11 5 8 -12 10
-12 10 -1 0 8 3 11 7 8 3 -4 13 -1 21 6 13 10 14 9 7 -2 -6 -10 -4 -12 5 -6 8
5 34 10 59 11 53 3 71 7 89 17 6 5 12 5 12 0 0 -4 7 3 16 15 13 19 18 21 32
10 9 -8 13 -8 9 -2 -4 7 0 15 9 18 9 4 13 2 8 -5 -3 -6 6 -3 22 7 18 13 25 14
20 5 -7 -10 -5 -12 3 -6 7 4 27 9 44 11 18 2 43 6 57 9 14 4 30 7 35 8 16 4
55 33 50 38 -4 5 27 9 100 13 44 3 77 16 104 40 14 12 21 15 17 6 -4 -8 0 -6
8 4 9 11 16 16 16 12 0 -5 8 -2 17 5 14 12 16 12 8 0 -6 -10 -4 -12 4 -6 7 4
29 9 48 11 19 2 47 11 60 20 15 9 22 11 18 3 -5 -8 -4 -10 3 -5 7 4 12 15 12
24 0 15 2 15 10 2 8 -12 10 -12 10 5 0 17 2 17 10 5 5 -8 10 -10 10 -4 0 7 7
15 16 18 10 4 13 2 8 -6 -5 -7 -3 -8 6 -3 11 7 36 11 88 17 6 1 12 6 12 11 0
6 3 7 7 4 3 -4 17 5 30 19 12 14 23 20 23 14 0 -7 7 -5 16 4 19 19 28 21 18 4
-6 -10 -5 -10 7 -1 8 7 32 13 52 15 20 1 37 5 37 9 0 4 9 9 21 12 13 4 18 10
13 18 -4 7 -3 10 4 5 5 -3 12 -2 14 3 2 7 62 21 106 24 6 0 12 4 12 9 0 5 5 6
10 3 6 -3 10 1 10 10 0 9 5 13 10 10 6 -3 10 -1 10 5 0 7 7 9 16 6 8 -3 13 -2
10 3 -3 5 1 12 10 15 10 4 13 2 8 -7 -6 -8 -3 -8 9 1 9 8 21 11 27 7 5 -3 10
-2 10 4 0 5 9 8 20 6 11 -2 18 0 15 6 -4 5 -1 9 6 9 6 0 17 8 24 17 7 9 18 18
26 19 8 2 24 5 37 8 12 3 32 8 43 11 12 2 29 11 39 20 9 8 20 12 24 8 4 -5 6
-1 4 7 -2 8 3 14 10 13 6 -2 12 1 12 5 0 7 24 12 68 15 6 0 12 4 12 9 0 4 7 8
16 8 8 0 12 5 9 10 -3 6 1 10 10 10 9 0 13 5 10 10 -4 6 -3 10 2 9 4 -1 10 0
13 1 6 2 26 7 59 14 14 3 28 12 33 20 4 7 19 21 34 31 15 9 23 12 19 5 -5 -8
-2 -9 11 -2 36 19 79 35 86 34 5 -1 7 3 5 9 -1 6 9 18 23 27 13 9 21 12 17 5
-5 -8 2 -7 20 2 15 8 32 15 36 15 5 0 22 14 39 30 25 26 51 36 81 31 4 0 7 4
7 9 0 6 7 10 15 10 8 0 15 7 15 16 0 8 5 12 10 9 6 -3 10 -2 10 3 0 9 48 26
59 22 2 -1 8 5 13 14 5 9 16 16 24 16 8 0 13 4 10 8 -2 4 4 14 16 21 14 9 18
9 13 1 -4 -7 4 -5 17 4 14 9 27 14 30 11 3 -3 22 12 44 32 21 21 35 32 31 26
-12 -19 52 18 86 49 16 15 33 25 38 22 5 -3 9 0 9 6 0 6 5 8 10 5 6 -3 10 -1
10 6 0 7 3 9 7 6 3 -4 19 7 35 23 15 16 28 27 28 24 0 -4 6 -1 13 5 8 6 16 8
19 5 3 -2 18 8 34 23 16 15 38 35 48 43 18 13 19 13 11 0 -10 -17 28 12 64 50
13 14 20 18 15 10 -5 -11 -2 -10 13 2 11 10 25 18 31 18 6 0 16 8 21 18 12 22
66 54 76 44 5 -4 5 -1 1 6 -4 6 -2 12 4 12 7 0 21 12 32 26 12 14 27 23 35 20
8 -3 12 -2 9 3 -6 8 30 25 47 22 5 -1 6 2 3 7 -3 5 4 16 15 25 10 9 19 14 19
10 0 -3 8 1 18 10 10 10 22 15 25 12 4 -3 5 -2 3 1 -6 8 24 36 70 68 21 14 34
26 29 26 -5 0 2 8 15 17 14 10 28 17 33 15 4 -1 7 3 7 10 0 6 3 9 6 5 3 -3 18
6 33 21 14 15 35 34 46 42 17 13 18 13 10 0 -4 -8 8 2 28 23 19 20 38 37 42
37 3 0 21 15 39 33 19 17 57 52 86 77 29 25 64 57 77 72 14 15 30 25 36 21 6
-3 7 -1 3 5 -4 7 -3 12 1 12 14 0 72 57 65 64 -3 4 2 4 12 0 14 -5 17 -4 12 4
-4 7 -2 12 4 12 15 0 40 25 40 40 0 6 5 8 10 5 6 -3 10 -2 10 3 0 5 11 15 25
22 13 7 23 16 21 19 -1 3 5 14 16 24 10 9 18 15 18 12 0 -3 11 5 24 17 13 13
21 26 19 31 -2 4 1 7 8 7 6 0 58 47 115 105 56 58 101 105 98 105 -3 0 1 6 8
14 7 8 15 12 17 10 7 -6 36 40 33 51 -2 5 0 7 4 3 8 -8 94 77 94 93 0 6 5 7
10 4 6 -3 10 -2 10 2 0 5 11 20 24 35 14 14 22 29 19 32 -4 3 0 6 8 6 8 0 21
10 29 21 8 12 21 28 28 35 7 8 12 14 9 14 -2 0 24 29 57 64 85 90 140 155 148
174 4 9 7 13 7 9 1 -12 50 43 56 64 4 11 11 19 16 19 6 0 7 5 4 10 -3 6 -1 10
5 10 5 0 18 13 29 30 10 16 21 27 26 22 5 -4 5 -2 1 5 -3 7 9 28 29 50 85 93
116 133 109 144 -3 5 2 9 11 9 9 0 13 5 10 10 -3 6 1 10 10 10 9 0 14 4 11 9
-4 5 -2 11 3 13 5 1 11 9 13 17 2 7 14 25 27 40 13 14 35 44 49 66 14 22 36
51 49 64 13 13 22 29 20 35 -2 6 8 22 23 36 15 14 35 41 45 60 9 19 29 47 43
62 14 15 26 36 27 46 0 10 15 33 32 49 18 17 29 34 26 37 -4 3 0 6 7 6 7 0 10
3 7 6 -3 4 -1 16 5 28 7 11 11 25 9 31 -1 5 1 7 5 3 9 -10 55 52 48 63 -3 5 0
9 5 9 6 0 10 3 10 8 -3 19 2 33 11 27 6 -3 10 1 10 10 0 9 4 14 9 11 5 -3 12
4 16 17 10 30 12 36 15 42 1 3 4 10 5 15 1 6 4 13 5 18 1 4 1 12 0 17 -1 6 1
7 5 3 4 -4 13 -1 20 6 19 18 55 97 42 89 -7 -3 3 8 21 25 17 18 32 36 32 41 0
6 5 22 12 38 6 15 10 33 9 38 -2 6 1 7 4 3 16 -15 54 53 57 100 1 6 5 12 10
12 5 0 7 3 5 8 -6 11 30 41 40 34 4 -4 5 -3 1 1 -3 5 0 26 7 47 7 21 11 41 8
44 -4 3 2 6 13 7 12 0 14 3 6 6 -10 4 -6 11 13 23 15 10 26 19 25 21 -7 13 25
93 45 115 23 25 49 110 39 126 -3 5 0 7 8 6 7 -2 12 3 11 10 -2 6 4 12 13 12
8 0 12 5 9 10 -3 6 -1 10 5 10 6 0 8 5 5 10 -3 6 -2 10 4 10 5 0 8 9 6 20 -2
11 0 20 5 20 5 0 7 9 5 20 -2 11 1 20 6 20 6 0 7 5 4 10 -3 6 -2 10 2 10 9 0
45 56 50 75 11 49 15 72 16 82 0 7 3 11 6 9 3 -2 12 2 19 10 7 8 9 14 5 14 -4
0 -2 4 5 8 14 10 24 42 25 89 1 17 4 30 8 28 3 -2 16 14 28 35 19 35 25 52 35
105 1 6 6 16 10 24 7 10 5 12 -3 6 -8 -4 -7 4 3 24 9 17 21 31 25 31 12 0 32
60 34 104 1 20 5 36 9 36 4 0 5 6 2 14 -3 7 6 26 21 41 23 26 41 84 39 128 -1
9 3 17 9 17 5 0 3 8 -4 17 -11 13 -11 15 -1 9 9 -5 12 -3 10 7 -2 8 7 24 20
35 13 11 23 23 23 26 -1 3 -1 7 0 9 5 17 10 52 13 95 2 32 9 58 17 63 12 7 12
9 -1 10 -10 0 -8 3 5 9 11 5 14 9 6 9 -8 1 -5 9 10 22 13 11 17 17 9 13 -13
-7 -13 -5 -2 8 13 16 22 50 26 98 1 14 6 31 10 39 7 11 6 12 -5 5 -9 -5 -8 2
5 20 10 16 14 26 9 23 -5 -4 -10 0 -10 8 0 8 5 13 11 12 6 -1 10 4 9 11 -2 6
1 12 6 12 8 0 18 25 27 70 2 8 5 41 6 72 2 32 6 58 10 58 3 0 4 10 0 22 -4 16
-2 19 9 13 12 -7 12 -6 1 7 -10 13 -10 19 2 31 8 8 12 17 9 21 -4 3 -1 6 6 6
7 0 9 5 6 10 -3 6 -2 10 3 10 5 0 9 6 10 13 0 6 4 26 7 42 4 17 8 47 9 67 1
21 5 40 8 44 4 3 3 17 -3 31 -6 18 -6 22 3 17 8 -5 9 -2 5 9 -4 10 -1 17 6 17
8 0 6 4 -3 10 -10 6 -11 10 -2 10 6 0 12 9 12 21 0 13 4 18 13 13 8 -5 8 -2
-2 9 -12 15 -11 17 5 17 16 0 17 2 4 10 -8 5 -10 10 -4 10 6 0 11 6 12 13 1 6
4 30 8 52 3 22 7 79 8 126 0 48 5 85 9 82 4 -2 6 7 3 21 -2 14 1 27 7 30 8 3
8 5 -1 5 -10 1 -9 5 3 17 12 12 13 19 5 24 -8 5 -6 9 5 14 15 5 15 9 4 23 -8
9 -9 14 -3 10 7 -4 14 2 17 13 3 13 1 18 -6 13 -9 -5 -9 -3 0 8 16 20 24 85
27 219 2 61 5 113 8 116 3 3 2 20 -2 39 -5 20 -4 33 1 29 12 -7 11 3 -2 28 -9
16 -8 19 2 13 9 -6 11 -3 6 8 -3 9 -2 19 4 23 6 4 6 11 -2 20 -9 11 -8 14 2
14 11 0 11 2 -1 10 -13 9 -13 10 0 10 13 0 13 1 0 10 -12 7 -12 10 -1 10 9 0
11 8 7 26 -4 16 -3 23 3 20 11 -7 7 26 -5 46 -4 6 -3 8 3 5 6 -4 13 2 16 13 3
11 0 20 -6 20 -7 0 -5 5 3 10 13 9 13 10 0 10 -12 1 -11 3 3 11 13 8 15 15 7
28 -5 10 -6 21 -2 25 3 4 7 33 8 64 2 31 5 129 8 217 4 88 6 198 5 245 -2 230
-6 337 -12 347 -4 7 -3 15 3 18 7 4 7 12 2 18 -4 7 -8 19 -7 27 0 8 -4 18 -10
22 -7 5 -6 8 1 8 6 0 10 10 8 23 -12 85 -16 102 -27 116 -9 11 -9 13 0 8 8 -5
10 1 7 20 -3 16 -6 36 -7 46 -1 9 -6 17 -12 17 -5 0 -3 5 5 10 13 9 13 10 0
10 -13 0 -13 1 0 10 12 8 12 10 1 10 -10 0 -11 3 -2 14 9 10 8 16 -4 26 -11 9
-12 16 -5 25 8 9 8 15 0 20 -7 4 -7 12 0 24 5 10 7 21 4 24 -3 3 -8 59 -10
124 -4 147 -10 202 -24 218 -8 10 -8 15 0 20 8 5 4 16 -12 33 -16 19 -18 22
-4 12 18 -13 19 -13 11 0 -4 8 -15 24 -24 35 -13 16 -13 18 -1 8 13 -10 16 -8
16 7 0 10 -3 17 -7 14 -4 -2 -9 3 -13 11 -3 8 -1 17 5 21 6 4 5 11 -3 21 -7 9
-12 18 -10 20 1 1 2 4 1 6 0 1 -2 40 -4 87 -3 47 -6 96 -9 110 -10 66 -19 100
-26 100 -5 0 -7 11 -6 25 2 13 0 22 -4 20 -5 -3 -11 2 -14 11 -4 10 -2 13 7 8
8 -5 7 -2 -2 9 -7 9 -10 17 -6 17 4 0 1 8 -6 17 -12 14 -12 16 0 8 10 -6 12
-4 6 5 -4 7 -9 31 -10 54 -2 23 -6 59 -10 81 -4 22 -8 48 -8 57 -1 9 -5 14 -9
12 -4 -3 -8 2 -8 11 0 10 -5 13 -12 9 -8 -5 -7 0 2 11 8 10 10 16 4 12 -7 -4
-15 0 -18 9 -4 10 -2 13 7 8 9 -6 9 -5 0 8 -7 8 -10 18 -6 21 3 4 0 7 -8 7
-11 0 -11 2 1 10 8 5 10 10 5 10 -6 0 -11 21 -11 48 -1 26 -4 56 -7 67 -2 11
-8 35 -12 53 -5 20 -14 32 -24 32 -14 0 -14 2 -1 10 12 8 12 10 -5 10 -17 0
-17 2 -5 10 11 7 11 10 2 10 -7 0 -10 5 -7 10 3 6 0 10 -7 10 -9 0 -9 3 2 10
8 5 10 10 5 10 -6 0 -11 10 -11 23 -1 49 -15 111 -28 126 -7 9 -19 27 -26 40
-10 19 -10 22 2 16 7 -3 4 1 -6 9 -15 12 -16 16 -5 16 8 0 10 3 4 8 -5 4 -10
21 -11 37 -1 50 -15 104 -30 116 -8 6 -14 20 -14 29 0 10 -5 20 -12 22 -6 2
-13 22 -14 44 -1 21 -5 53 -9 69 -4 17 -8 35 -8 42 0 7 -4 10 -9 7 -4 -3 -8 2
-8 11 0 10 -5 13 -12 9 -7 -4 -8 -3 -4 5 4 6 2 18 -4 26 -7 8 -14 31 -16 51
-4 43 -34 125 -43 120 -3 -3 -11 7 -18 20 -7 16 -8 22 -1 17 7 -4 8 -1 2 8 -9
15 -15 35 -16 59 0 8 -5 21 -11 28 -5 6 -6 12 -3 12 4 0 -4 12 -18 27 -14 15
-23 30 -20 35 3 4 1 8 -3 8 -5 0 -10 10 -10 23 -3 44 -21 97 -34 97 -6 0 -7 5
-4 10 3 6 1 10 -5 10 -6 0 -8 5 -4 12 5 8 2 9 -11 4 -15 -5 -16 -4 -5 9 7 8 8
15 3 15 -5 0 -10 6 -10 13 -2 47 -37 127 -56 127 -4 0 -5 5 -2 10 3 6 2 10 -2
10 -5 0 -10 11 -11 25 -2 26 -38 105 -48 105 -3 0 -2 -6 2 -12 4 -8 3 -10 -2
-5 -5 5 -10 13 -10 18 -1 5 -2 10 -4 12 -2 3 -10 39 -12 60 -1 9 -6 17 -11 17
-4 0 -6 4 -3 8 3 5 -6 20 -19 34 -13 14 -21 29 -18 32 4 3 2 6 -4 6 -5 0 -10
7 -11 15 -1 8 -3 22 -4 30 -1 8 -5 15 -10 15 -5 0 -7 4 -4 9 3 4 -3 16 -14 26
-11 10 -20 24 -20 32 0 7 -5 13 -12 13 -6 0 -9 3 -5 6 9 10 -17 67 -45 97 -14
14 -25 33 -26 42 -1 8 -3 21 -4 29 -1 8 -16 34 -35 57 -29 36 -34 48 -33 74 0
6 -6 13 -45 58 -14 15 -26 32 -26 38 -6 45 -48 105 -65 91 -4 -4 -4 -2 -1 4 9
15 -20 84 -34 84 -5 0 -8 3 -6 8 7 10 -19 32 -28 24 -4 -4 -6 -2 -5 3 6 27 -2
53 -26 80 -14 17 -30 29 -35 28 -4 -2 -6 3 -3 11 3 8 0 17 -5 21 -6 3 -9 11
-6 16 4 5 1 9 -5 9 -6 0 -9 4 -6 9 7 11 -28 43 -38 34 -4 -4 -4 1 0 11 5 14 4
17 -5 12 -6 -4 -11 -4 -10 1 4 24 -4 42 -36 77 -33 37 -39 49 -36 69 0 4 -3 7
-9 7 -5 0 -10 7 -10 16 0 8 -4 12 -10 9 -5 -3 -10 1 -10 10 0 9 -4 14 -9 11
-8 -5 -25 29 -22 47 1 4 -3 7 -8 7 -5 0 -13 9 -16 20 -4 11 -10 18 -15 15 -4
-3 -18 15 -30 40 -12 25 -30 50 -40 55 -10 5 -23 23 -28 39 -6 16 -25 45 -42
63 -18 18 -38 45 -46 61 -8 15 -22 27 -31 27 -9 0 -14 3 -10 6 6 7 -3 21 -49
70 -17 18 -29 36 -26 39 3 3 0 5 -7 5 -7 0 -10 4 -7 8 6 11 -50 73 -58 64 -4
-4 -6 -2 -5 3 4 14 -16 48 -48 82 -74 77 -229 257 -256 298 -15 22 -27 36 -27
32 0 -4 -6 -2 -14 5 -8 7 -12 15 -10 17 2 2 -15 21 -36 43 -22 21 -40 43 -40
47 0 5 -15 18 -32 30 -18 11 -29 21 -24 21 4 0 -15 22 -43 50 -28 27 -51 55
-51 62 0 6 -3 9 -6 5 -3 -3 -43 32 -89 78 -45 47 -85 81 -89 78 -3 -3 -6 -1
-6 5 0 17 -52 62 -64 55 -6 -3 -8 -3 -4 2 4 4 -19 33 -51 64 -86 83 -108 100
-117 93 -4 -4 -4 -1 0 6 4 7 1 15 -8 18 -9 3 -13 11 -9 17 3 5 1 7 -4 4 -6 -4
-23 6 -39 21 -16 15 -38 34 -50 42 -12 8 -55 45 -95 81 -160 142 -181 159
-191 153 -6 -4 -8 -3 -5 2 5 9 -45 57 -58 54 -4 0 -15 11 -27 25 -11 14 -34
33 -51 42 -44 22 -97 69 -89 79 4 4 2 4 -5 1 -6 -4 -24 5 -40 21 -35 35 -88
69 -78 51 5 -8 -8 3 -29 24 -20 20 -43 37 -50 37 -7 0 -27 13 -44 29 -17 16
-43 36 -59 44 -15 8 -44 29 -63 45 -19 17 -37 29 -41 26 -4 -2 -28 14 -55 36
-26 21 -51 37 -56 34 -4 -3 -8 0 -8 7 0 7 -3 9 -6 6 -4 -3 -25 9 -47 28 -22
19 -43 32 -48 30 -4 -3 -20 8 -36 23 -16 16 -45 35 -65 42 -21 8 -54 28 -74
47 -20 18 -40 31 -44 28 -3 -2 -18 4 -32 13 -76 52 -92 61 -100 56 -4 -3 -8 0
-8 5 0 6 -3 10 -7 9 -5 -2 -24 10 -44 25 -20 15 -47 30 -60 32 -13 3 -35 14
-49 25 -14 11 -41 28 -60 36 -19 9 -43 21 -54 26 -14 7 -16 6 -11 -4 4 -7 -5
2 -21 19 -25 28 -56 42 -101 45 -7 1 -13 5 -13 9 0 13 -74 54 -97 54 -12 1
-33 10 -45 20 -48 41 -57 46 -85 52 -15 3 -34 6 -40 6 -7 0 -13 5 -13 10 0 6
-3 7 -6 4 -4 -4 -14 1 -23 11 -21 24 -73 43 -123 46 -9 0 -15 2 -13 4 6 6 -16
26 -41 40 -20 10 -64 22 -91 24 -7 1 -13 5 -13 9 0 4 -9 6 -19 4 -14 -3 -18 1
-14 11 3 8 2 14 -3 12 -5 -1 -20 4 -33 11 -14 8 -41 16 -60 18 -19 3 -45 11
-56 19 -12 8 -25 11 -29 7 -4 -5 -6 -3 -4 2 2 6 -1 11 -6 12 -5 1 -12 6 -15
11 -6 9 -63 23 -103 25 -10 1 -18 6 -18 11 0 5 -3 6 -7 3 -3 -4 -12 1 -20 11
-10 11 -12 12 -8 2 5 -12 4 -12 -7 1 -15 19 -52 33 -88 34 -14 1 -31 5 -38 9
-7 4 -12 4 -12 0 0 -4 -10 1 -22 12 -13 12 -18 13 -13 4 7 -12 5 -12 -11 1
-27 24 -63 41 -93 45 -14 2 -35 5 -46 7 -11 1 -26 7 -34 11 -10 7 -12 6 -6 -4
5 -8 -7 -2 -26 12 -38 29 -84 45 -145 51 -23 2 -47 8 -54 12 -9 6 -11 4 -5 -6
7 -11 6 -12 -6 -3 -34 28 -91 53 -131 59 -50 8 -107 16 -125 17 -7 1 -13 5
-13 10 0 5 -4 6 -10 3 -5 -3 -10 -1 -10 5 0 6 -4 8 -10 5 -5 -3 -10 -1 -10 5
0 6 -4 8 -10 5 -5 -3 -10 -2 -10 3 0 5 -6 9 -12 10 -7 0 -22 3 -34 5 -11 3
-41 6 -65 8 -24 1 -52 7 -63 12 -11 5 -16 5 -13 0 4 -5 0 -10 -8 -10 -8 0 -12
4 -10 8 3 4 -2 10 -11 13 -10 4 -13 2 -8 -7 4 -6 -3 -3 -16 8 -15 13 -21 15
-16 5 4 -8 0 -6 -8 4 -9 11 -16 17 -16 13 0 -4 -9 -3 -20 3 -19 10 -73 20
-130 25 -14 1 -31 -3 -39 -9 -12 -9 -13 -8 -6 3 6 11 3 13 -13 9 -12 -4 -25
-2 -28 3 -3 6 -12 5 -22 -3 -12 -10 -14 -10 -8 0 5 8 -3 14 -26 19 -18 4 -36
6 -40 5 -5 -1 -8 2 -8 8 0 6 -3 9 -7 9 -5 -1 -10 0 -13 1 -27 10 -100 19 -198
24 -40 2 -76 7 -79 10 -4 3 -13 0 -21 -7 -13 -10 -14 -9 -7 2 6 11 4 13 -7 8
-9 -3 -21 0 -28 6 -10 9 -11 9 -5 -2 6 -11 2 -10 -15 2 -19 13 -27 14 -39 4
-9 -8 -12 -8 -8 -1 4 7 -3 14 -18 16 -16 4 -22 1 -18 -6 4 -6 0 -5 -9 2 -27
22 -83 29 -303 37 -77 3 -153 8 -170 11 -16 3 -37 7 -45 9 -8 1 -21 -3 -29 -9
-11 -8 -13 -8 -7 2 5 8 -1 12 -21 13 -44 1 -94 7 -108 13 -8 3 -16 0 -19 -7
-3 -8 -5 -8 -5 2 -1 11 -4 11 -18 0 -11 -10 -14 -10 -9 -1 5 9 -3 12 -31 13
-21 0 -90 2 -153 5 -115 5 -619 11 -623 8z"/>
<path d="M25105 18541 c-2 -2 -113 -5 -247 -7 -327 -6 -361 -8 -377 -18 -9 -6
-12 -5 -8 0 8 13 -75 4 -92 -10 -12 -8 -13 -8 -7 2 4 6 3 12 -3 12 -5 0 -13
-5 -16 -10 -5 -8 -11 -8 -20 0 -10 8 -14 7 -18 -2 -4 -9 -6 -10 -6 -1 -1 7 -8
10 -16 7 -8 -4 -12 -11 -8 -18 5 -8 3 -8 -8 0 -12 9 -33 11 -41 4 -8 -6 -37
-7 -34 -1 3 4 -5 6 -17 5 -12 -1 -22 -3 -22 -4 0 -1 -13 -3 -30 -3 -16 -1 -35
-5 -42 -10 -6 -4 -15 -2 -19 4 -4 8 -9 7 -15 -2 -7 -12 -9 -12 -9 0 0 10 -3
11 -14 2 -10 -8 -16 -9 -21 -1 -3 6 -11 7 -17 4 -6 -4 -63 -8 -127 -9 -64 -2
-118 -4 -121 -5 -3 -1 -9 -1 -15 0 -10 2 -135 0 -320 -5 -83 -3 -213 -12 -259
-19 -6 -1 -17 -6 -25 -10 -9 -6 -12 -5 -8 1 4 5 -6 8 -23 5 -18 -2 -27 -9 -23
-15 4 -6 1 -7 -8 -1 -19 11 -39 14 -39 5 0 -5 -12 -6 -26 -3 -21 4 -25 2 -19
-9 7 -12 6 -12 -7 -1 -13 10 -17 10 -21 0 -4 -9 -6 -10 -6 -1 -1 7 -8 10 -16
7 -8 -4 -12 -11 -8 -17 4 -6 1 -7 -7 -2 -15 9 -80 13 -80 5 0 -3 -21 -6 -47
-7 -115 -2 -361 -13 -388 -17 -65 -10 -121 -18 -143 -21 -13 -2 -31 -10 -40
-17 -12 -10 -14 -10 -8 -1 5 10 1 11 -18 3 -14 -5 -26 -6 -26 -2 0 4 -5 0 -10
-8 -7 -11 -10 -11 -10 -2 0 7 -4 10 -10 7 -13 -8 -92 -15 -230 -21 -155 -6
-160 -7 -160 -17 0 -4 -5 -5 -10 -2 -6 4 -18 1 -27 -7 -14 -11 -16 -11 -8 2 7
11 2 10 -19 -4 -16 -10 -26 -14 -23 -8 4 5 -4 7 -18 4 -15 -2 -22 -9 -18 -16
4 -7 1 -7 -8 1 -12 10 -20 9 -39 -4 -15 -10 -20 -12 -15 -3 5 7 4 11 -1 7 -11
-6 -117 -17 -234 -23 -47 -2 -92 -6 -100 -7 -49 -12 -77 -21 -89 -31 -11 -8
-13 -8 -7 1 5 9 2 11 -8 7 -9 -3 -14 -10 -11 -14 3 -5 -4 -6 -15 -3 -11 3 -28
-1 -37 -8 -14 -12 -16 -12 -8 0 5 9 4 12 -2 8 -18 -11 -69 -18 -173 -21 -58
-3 -118 -7 -135 -11 -16 -4 -36 -8 -42 -8 -7 0 -13 -4 -13 -9 0 -5 -4 -7 -8
-4 -5 3 -21 -1 -36 -9 -18 -10 -24 -10 -19 -2 4 7 -6 4 -21 -7 -16 -10 -25
-12 -21 -5 6 9 4 10 -6 3 -8 -5 -22 -9 -31 -10 -10 -1 -19 -2 -20 -3 -2 -1
-41 -4 -88 -6 -47 -2 -95 -7 -107 -10 -13 -3 -32 -7 -44 -10 -12 -2 -28 -10
-37 -17 -13 -11 -14 -11 -7 2 5 9 -1 7 -15 -5 -14 -12 -20 -14 -15 -5 7 12 6
13 -7 3 -8 -7 -18 -10 -21 -6 -4 3 -7 0 -7 -8 0 -11 -2 -11 -10 1 -5 8 -10 10
-10 4 0 -6 -23 -12 -52 -13 -127 -6 -157 -10 -215 -27 -34 -10 -60 -21 -58
-24 2 -4 -6 -6 -18 -5 -12 1 -26 0 -32 -4 -11 -6 -30 -9 -125 -16 -36 -3 -72
-7 -80 -9 -8 -2 -30 -7 -47 -11 -18 -4 -33 -11 -33 -15 0 -3 -7 -7 -15 -8 -8
-1 -22 -3 -30 -4 -8 -1 -15 -4 -15 -8 0 -3 -10 -6 -22 -7 -32 0 -159 -13 -183
-18 -11 -2 -26 -4 -33 -4 -7 -1 -10 -5 -7 -11 3 -6 -1 -7 -9 -4 -9 3 -16 2
-16 -3 0 -5 -7 -10 -15 -11 -8 -1 -22 -3 -30 -4 -8 -1 -15 -5 -15 -9 0 -5 -7
-5 -17 -2 -12 5 -14 3 -8 -8 8 -12 6 -12 -8 0 -9 7 -17 10 -17 5 0 -5 -25 -9
-55 -10 -60 -1 -137 -22 -129 -35 3 -5 -3 -6 -12 -2 -11 4 -15 2 -11 -4 4 -6
-3 -9 -18 -7 -14 1 -25 -1 -25 -5 0 -4 -10 -7 -22 -8 -31 -1 -126 -12 -163
-19 -16 -3 -45 -14 -63 -25 -18 -10 -30 -13 -26 -7 6 10 5 10 -7 1 -15 -12
-51 -21 -124 -29 -76 -8 -112 -20 -139 -43 -15 -13 -18 -13 -11 -1 7 13 6 13
-7 2 -17 -13 -29 -16 -108 -26 -25 -3 -55 -8 -68 -11 -33 -6 -102 -37 -97 -44
1 -3 -7 -7 -18 -8 -127 -9 -193 -25 -215 -52 -11 -13 -12 -13 -7 -1 6 13 5 13
-7 0 -14 -16 -18 -18 -80 -25 -78 -8 -103 -15 -132 -37 -16 -11 -25 -14 -21
-7 7 11 5 11 -9 -1 -23 -18 -55 -25 -144 -29 -15 -1 -21 -5 -16 -13 4 -6 3 -8
-4 -4 -12 7 -113 -34 -107 -43 1 -3 -13 -6 -32 -5 -48 1 -177 -41 -169 -55 3
-4 -5 -7 -17 -8 -12 -1 -34 -4 -49 -7 -16 -3 -39 -8 -52 -10 -38 -7 -96 -37
-90 -47 3 -5 -3 -6 -12 -2 -10 3 -15 2 -12 -3 4 -5 -8 -9 -25 -8 -42 1 -112
-18 -165 -46 -23 -12 -61 -24 -84 -26 -23 -3 -53 -11 -66 -20 -18 -12 -23 -12
-17 -3 3 8 -1 5 -9 -5 -9 -11 -16 -16 -16 -11 0 5 -7 0 -16 -11 -8 -10 -12
-12 -8 -4 6 12 5 13 -7 3 -13 -11 -31 -15 -104 -27 -6 -1 -28 -12 -48 -24 -21
-12 -43 -22 -48 -22 -6 0 -8 -3 -6 -7 3 -5 -13 -9 -34 -10 -53 -2 -101 -19
-129 -45 -12 -12 -39 -23 -59 -25 -20 -2 -46 -4 -58 -5 -13 -1 -23 -6 -23 -11
0 -4 -4 -5 -10 -2 -5 3 -10 1 -10 -5 0 -6 -4 -9 -8 -6 -5 3 -14 -4 -22 -14 -8
-10 -17 -17 -22 -14 -4 3 -8 1 -8 -3 0 -5 -10 -9 -22 -10 -40 -1 -66 -9 -84
-23 -16 -13 -17 -13 -9 0 8 15 -33 -16 -47 -34 -3 -5 -19 -11 -35 -12 -15 -1
-37 -5 -48 -8 -11 -2 -25 -5 -31 -5 -6 -1 -24 -13 -39 -28 -16 -16 -25 -21
-21 -13 7 13 6 13 -6 0 -7 -8 -24 -16 -38 -18 -45 -5 -55 -7 -67 -15 -7 -5
-13 -5 -13 -1 0 4 -12 -6 -26 -22 -15 -16 -23 -24 -20 -17 4 8 -2 7 -21 -2
-16 -8 -43 -17 -62 -20 -19 -3 -41 -14 -48 -23 -10 -12 -12 -12 -8 -2 4 10 2
9 -8 -2 -8 -10 -18 -14 -22 -10 -5 4 -6 0 -2 -9 4 -12 0 -15 -19 -13 -13 1
-26 -2 -30 -7 -3 -5 -9 -7 -14 -4 -11 7 -70 -15 -70 -26 0 -12 -54 -35 -96
-42 -35 -5 -84 -34 -84 -49 0 -5 -4 -6 -10 -3 -5 3 -10 2 -10 -2 0 -5 -11 -10
-26 -11 -14 -1 -34 -7 -45 -12 -10 -6 -19 -8 -19 -5 0 2 -9 -3 -19 -12 -11 -9
-18 -20 -15 -25 3 -4 -3 -5 -12 -1 -10 4 -15 2 -11 -3 3 -5 -2 -10 -11 -11
-46 -3 -92 -23 -125 -54 -11 -10 -24 -16 -29 -13 -4 3 -8 0 -8 -6 0 -6 -4 -9
-10 -5 -14 8 -74 -19 -100 -46 -13 -13 -20 -19 -16 -12 5 8 -2 8 -20 -2 -15
-8 -31 -12 -36 -9 -4 3 -8 0 -8 -5 0 -6 -3 -10 -7 -9 -14 4 -54 -23 -48 -32 4
-6 -1 -7 -11 -3 -10 4 -15 2 -11 -3 3 -6 -3 -11 -14 -11 -34 -3 -89 -24 -89
-34 0 -6 -5 -7 -12 -3 -8 5 -9 2 -4 -12 4 -10 4 -15 0 -12 -4 4 -15 3 -26 -3
-11 -6 -32 -13 -46 -15 -15 -3 -30 -11 -34 -17 -4 -7 -8 -8 -8 -4 0 4 -12 -5
-26 -20 -14 -15 -28 -27 -30 -25 -2 1 -5 2 -6 1 -2 0 -14 -3 -28 -5 -35 -6
-72 -33 -64 -46 4 -6 3 -8 -4 -4 -6 3 -13 2 -17 -4 -4 -6 -11 -8 -16 -5 -5 4
-9 1 -9 -4 0 -6 -3 -10 -7 -10 -23 4 -41 -4 -72 -30 -19 -16 -46 -32 -61 -35
-15 -2 -40 -16 -56 -29 -16 -13 -46 -30 -67 -38 -20 -7 -37 -17 -37 -22 0 -4
-4 -5 -10 -2 -5 3 -10 -1 -10 -10 0 -10 -5 -13 -12 -9 -7 5 -9 2 -6 -7 4 -10
-2 -15 -19 -17 -13 -1 -33 -7 -44 -12 -10 -6 -19 -9 -19 -6 0 2 -13 -9 -29
-25 -16 -16 -43 -32 -60 -35 -17 -4 -31 -11 -31 -17 0 -6 -3 -8 -6 -4 -3 3
-16 -5 -29 -18 -12 -14 -25 -22 -28 -18 -4 3 -7 1 -7 -5 0 -7 -3 -11 -7 -11
-19 3 -33 -3 -66 -30 -20 -15 -33 -32 -29 -36 4 -5 2 -5 -5 -2 -23 14 -112
-40 -95 -58 4 -5 2 -5 -4 -2 -6 3 -22 0 -37 -8 -15 -8 -27 -11 -27 -9 0 3 -14
-8 -31 -25 -17 -17 -41 -34 -55 -37 -13 -3 -24 -10 -24 -16 0 -5 -3 -7 -7 -5
-10 5 -43 -29 -37 -37 2 -3 1 -4 -2 -2 -9 7 -85 -35 -91 -50 -3 -8 -9 -11 -14
-8 -5 3 -9 1 -9 -5 0 -5 -10 -13 -22 -17 -12 -3 -33 -17 -47 -31 -14 -13 -43
-33 -64 -44 -21 -11 -40 -26 -44 -34 -3 -8 -9 -12 -14 -9 -5 3 -9 1 -9 -5 0
-5 -10 -13 -22 -17 -12 -3 -33 -17 -47 -31 -14 -13 -39 -31 -55 -40 -31 -16
-77 -58 -71 -65 2 -2 -5 -5 -17 -5 -12 -1 -25 -8 -29 -15 -5 -7 -9 -10 -9 -5
0 4 -8 -1 -18 -10 -11 -10 -17 -21 -15 -26 3 -4 1 -6 -4 -5 -19 6 -106 -65
-95 -78 4 -4 2 -4 -5 -1 -6 4 -18 1 -26 -7 -8 -8 -17 -12 -21 -9 -3 4 -6 -1
-6 -11 0 -9 -4 -14 -10 -11 -5 3 -10 -1 -10 -10 0 -9 -4 -13 -10 -10 -5 3 -10
2 -10 -4 0 -5 -8 -12 -17 -15 -10 -3 -32 -19 -50 -36 -18 -16 -36 -30 -42 -30
-6 0 -26 -16 -46 -37 -19 -20 -35 -33 -35 -29 0 3 -20 -13 -44 -36 -25 -24
-58 -54 -74 -68 -17 -14 -28 -29 -24 -34 3 -5 1 -6 -5 -3 -5 3 -33 -16 -61
-42 -29 -27 -52 -47 -52 -45 0 3 -16 -11 -35 -31 -20 -19 -38 -35 -41 -35 -3
0 -36 -30 -74 -67 -38 -38 -80 -76 -94 -86 -14 -10 -26 -25 -26 -33 0 -8 -3
-13 -7 -11 -10 6 -64 -49 -56 -57 4 -3 2 -6 -4 -6 -6 0 -40 -29 -77 -65 -36
-36 -64 -65 -60 -65 3 0 -11 -15 -30 -34 -20 -18 -36 -37 -36 -40 0 -4 -16
-22 -35 -40 -19 -19 -35 -37 -35 -41 0 -4 -17 -24 -38 -44 -73 -70 -211 -234
-205 -244 3 -6 1 -7 -5 -3 -6 3 -21 -8 -33 -26 -13 -18 -30 -40 -40 -48 -20
-19 -50 -75 -44 -84 3 -3 2 -4 -1 -2 -8 6 -63 -47 -58 -55 2 -3 -12 -24 -31
-46 -34 -40 -60 -89 -56 -106 1 -5 -3 -6 -9 -2 -5 3 -10 1 -10 -5 0 -6 -5 -8
-12 -4 -6 4 -8 3 -4 -4 3 -6 1 -14 -4 -17 -13 -8 -34 -56 -31 -70 2 -5 -1 -7
-5 -3 -8 9 -54 -41 -54 -59 0 -7 -13 -27 -29 -45 -28 -32 -66 -105 -63 -120 1
-5 -3 -7 -10 -5 -13 2 -49 -63 -41 -75 2 -5 -1 -8 -7 -8 -6 0 -8 -4 -5 -10 3
-5 1 -10 -5 -10 -6 0 -8 -5 -5 -10 4 -6 1 -9 -6 -8 -15 3 -41 -44 -43 -77 0
-13 -5 -21 -10 -17 -5 3 -7 -2 -3 -11 4 -10 2 -16 -5 -14 -14 3 -45 -49 -52
-86 -3 -16 -10 -34 -15 -41 -6 -7 -7 -17 -3 -21 4 -5 2 -5 -4 -2 -13 8 -42
-40 -46 -78 -2 -17 -10 -36 -18 -43 -13 -12 -13 -13 0 -6 8 4 3 -4 -13 -19
-24 -24 -32 -38 -28 -59 0 -5 -3 -8 -7 -8 -4 0 -8 -12 -7 -27 0 -16 -6 -34
-15 -41 -13 -12 -13 -12 0 -6 15 8 -14 -33 -35 -48 -5 -4 -6 -8 -1 -8 5 0 4
-6 -2 -12 -9 -12 -24 -80 -26 -120 0 -9 -3 -15 -7 -12 -19 11 -58 -93 -54
-143 1 -13 -3 -23 -8 -23 -5 0 -3 -8 4 -17 8 -9 9 -14 3 -10 -7 4 -15 0 -18
-9 -4 -10 -2 -13 7 -8 6 4 2 -3 -10 -15 -25 -24 -31 -39 -10 -25 7 5 4 1 -6
-8 -11 -10 -16 -18 -12 -18 4 0 3 -6 -2 -12 -6 -7 -11 -20 -11 -28 -9 -112
-22 -169 -49 -213 -4 -6 0 -7 8 -3 10 6 10 4 -1 -6 -8 -7 -17 -20 -18 -28 -2
-8 -6 -24 -8 -35 -3 -11 -6 -64 -8 -117 -3 -53 -7 -102 -11 -107 -3 -6 -3 -11
1 -11 3 0 1 -6 -5 -14 -8 -9 -8 -16 -2 -20 6 -4 8 -13 5 -21 -4 -8 -9 -13 -13
-11 -4 3 -7 -4 -7 -14 0 -15 3 -17 16 -7 12 10 12 8 -1 -8 -20 -25 -33 -58
-19 -50 6 3 7 -1 4 -9 -3 -9 -9 -14 -13 -12 -3 2 -6 -9 -6 -24 0 -15 4 -26 9
-23 5 4 5 0 0 -8 -13 -21 -14 -33 -20 -174 -3 -95 -8 -10549 -5 -10657 1 -17
769 -18 15940 -18 12738 0 15940 3 15943 13 6 22 0 10789 -7 10882 -3 50 -7
96 -7 103 -1 6 -6 12 -12 12 -6 0 -4 5 4 10 13 9 13 10 0 10 -13 0 -13 1 0 10
11 7 11 10 2 10 -7 0 -10 4 -7 10 9 14 -6 81 -16 74 -5 -3 -4 7 1 21 5 14 6
24 1 21 -5 -3 -11 1 -15 9 -3 8 -1 17 5 20 5 4 6 12 2 18 -8 14 -10 30 -17
142 -6 96 -11 122 -28 143 -11 13 -11 15 2 8 8 -4 6 0 -5 9 -11 9 -19 23 -17
31 2 8 -3 14 -10 14 -9 0 -9 3 2 10 8 5 10 10 5 10 -6 0 -12 10 -13 23 -9 136
-18 175 -49 216 -15 19 -20 31 -12 26 12 -8 12 -6 0 9 -8 10 -16 34 -17 54 -4
62 -30 136 -44 127 -5 -3 -12 0 -16 6 -4 8 -3 9 4 5 7 -4 12 -2 12 3 0 6 -4
11 -10 11 -5 0 -9 3 -8 8 10 35 -46 176 -65 165 -7 -3 -9 -3 -5 2 4 4 2 15 -5
23 -10 13 -9 14 2 7 11 -6 12 -5 5 6 -5 8 -10 25 -12 39 -5 37 -27 75 -41 72
-7 -1 -10 2 -6 8 3 5 2 10 -3 10 -5 0 -9 6 -10 13 -3 52 -46 142 -63 132 -3
-2 -6 1 -7 8 0 7 -3 21 -5 32 -3 11 -7 27 -9 35 -4 18 -17 35 -45 62 -12 12
-20 25 -17 30 3 5 0 15 -6 23 -7 8 -9 15 -6 15 4 0 2 9 -4 20 -6 12 -16 18
-23 14 -7 -4 -9 -3 -4 1 4 5 -2 18 -12 29 -20 21 -21 24 -21 49 0 8 -12 27
-26 43 -14 16 -34 48 -44 70 -10 23 -28 48 -39 56 -12 8 -18 18 -14 21 3 4 1
7 -5 7 -7 0 -11 3 -11 8 3 19 -3 33 -25 55 -13 13 -32 39 -41 58 -10 19 -31
49 -46 67 -16 18 -29 37 -29 41 0 9 -32 51 -102 135 -18 21 -39 50 -46 63 -8
14 -28 38 -45 55 -18 16 -25 26 -17 22 8 -4 -3 13 -25 38 -22 25 -58 66 -80
92 -22 26 -68 76 -102 111 -35 35 -63 67 -63 70 0 3 -35 41 -77 84 -43 43
-106 108 -140 144 -34 35 -64 62 -68 59 -3 -3 -5 2 -5 12 0 9 -4 14 -10 11 -5
-3 -10 1 -10 10 0 9 -4 13 -10 10 -5 -3 -10 1 -10 10 0 9 -4 13 -10 10 -5 -3
-10 2 -10 11 0 10 -3 15 -6 11 -3 -3 -39 27 -80 67 -41 40 -74 70 -74 67 0 -3
-5 2 -11 12 -6 9 -16 14 -22 11 -7 -4 -9 -4 -5 1 8 9 -44 65 -54 58 -5 -2 -8
1 -8 7 0 6 -5 8 -12 4 -7 -4 -8 -3 -4 5 4 6 0 14 -8 17 -9 3 -16 13 -16 21 0
8 -4 12 -9 9 -5 -4 -11 -3 -13 1 -2 5 -23 26 -47 48 -24 22 -41 33 -37 25 4
-8 0 -6 -9 5 -9 11 -21 19 -26 17 -6 -1 -8 1 -5 6 6 10 -30 43 -38 35 -3 -4
-6 -1 -6 6 0 8 -6 11 -17 7 -10 -4 -14 -4 -10 0 8 9 -41 64 -57 64 -6 0 -32
21 -58 46 -27 25 -48 43 -48 39 0 -4 -13 7 -29 24 -16 17 -33 31 -38 31 -5 0
-26 16 -48 35 -21 20 -45 33 -52 31 -8 -3 -11 -1 -8 4 6 9 -8 14 -27 11 -5 0
-7 4 -5 11 1 6 -18 25 -43 41 -25 17 -52 38 -60 47 -19 21 -75 51 -84 45 -3
-3 -4 -2 -1 1 6 9 -46 54 -62 54 -6 0 -26 15 -45 33 -18 17 -36 33 -41 35 -4
1 -15 5 -24 9 -10 3 -32 19 -50 35 -17 17 -42 31 -56 31 -17 2 -23 6 -19 16 3
9 1 12 -6 7 -7 -4 -12 -2 -12 4 0 10 -69 56 -80 54 -3 -1 -16 10 -29 25 -13
14 -20 19 -16 11 5 -13 4 -13 -7 0 -7 9 -28 22 -46 29 -18 8 -42 25 -52 39
-11 13 -20 21 -20 17 0 -4 -6 -2 -13 4 -8 6 -17 8 -20 4 -4 -3 -7 0 -7 7 0 7
-3 11 -6 7 -4 -3 -26 10 -50 30 -24 19 -44 32 -44 28 0 -4 -6 -2 -13 4 -8 6
-17 8 -20 4 -4 -3 -7 -1 -7 6 0 7 -4 9 -10 6 -6 -4 -7 1 -3 11 4 12 3 15 -5
10 -7 -4 -12 -3 -12 2 0 13 -86 43 -95 34 -4 -4 -6 -2 -5 3 4 19 0 38 -7 32
-3 -4 -13 -1 -22 7 -9 7 -33 19 -53 25 -21 7 -41 19 -45 26 -10 18 -94 55
-107 48 -5 -4 -6 -1 -1 7 6 10 4 12 -9 7 -10 -4 -15 -3 -11 3 6 10 -34 40 -58
44 -8 1 -23 8 -33 16 -16 13 -17 13 -10 0 5 -8 -6 1 -24 20 -18 19 -29 29 -25
21 5 -9 1 -9 -17 3 -14 9 -28 13 -31 9 -4 -3 -7 0 -7 7 0 7 -3 11 -6 7 -3 -3
-26 10 -50 28 -26 20 -52 32 -64 30 -11 -2 -20 0 -20 6 0 5 -9 9 -21 9 -11 0
-18 4 -15 8 3 5 -13 19 -34 31 -22 12 -40 19 -40 15 0 -3 -8 0 -17 7 -15 12
-16 12 -8 -1 7 -12 6 -13 -7 -3 -8 7 -18 10 -22 6 -4 -4 -4 1 0 11 5 14 4 17
-4 12 -7 -4 -12 -3 -12 2 0 11 -37 31 -69 37 -13 2 -33 11 -45 20 -11 8 -31
22 -42 30 -20 14 -60 27 -91 28 -7 0 -9 5 -6 10 4 6 -1 8 -11 4 -9 -4 -15 -3
-12 2 7 11 -34 39 -71 46 -32 7 -56 13 -63 15 -3 1 -9 2 -13 1 -5 -1 -6 3 -3
7 3 5 -4 18 -16 28 -14 12 -18 14 -13 4 7 -13 6 -13 -7 -2 -16 13 -49 23 -80
25 -9 1 -14 6 -11 11 4 5 -1 7 -11 3 -9 -4 -15 -3 -12 2 7 11 -34 39 -66 45
-12 2 -35 9 -49 14 -15 6 -30 8 -35 4 -4 -4 -4 -2 -1 4 3 6 -3 18 -14 27 -10
9 -19 15 -19 12 0 -2 -18 2 -40 10 -22 8 -40 11 -40 8 0 -3 -10 2 -22 13 -13
12 -18 13 -13 4 5 -8 -4 -3 -20 13 -15 15 -33 27 -39 28 -45 3 -126 34 -126
49 0 10 -76 33 -88 26 -6 -3 -14 -1 -17 5 -4 5 -14 8 -22 5 -8 -3 -12 -2 -9 2
4 7 -47 44 -66 48 -5 1 -9 2 -10 4 -4 2 -40 10 -60 12 -10 1 -18 6 -18 11 0 4
-4 5 -10 2 -5 -3 -10 -1 -10 4 0 6 -7 11 -15 11 -7 0 -18 7 -23 16 -5 9 -13
16 -18 15 -5 0 -18 2 -29 4 -11 3 -29 6 -40 8 -11 1 -26 7 -34 11 -10 7 -12 5
-6 -5 5 -8 -3 -3 -18 10 -15 13 -31 20 -38 16 -7 -5 -10 -4 -5 3 5 9 -16 22
-44 27 -63 12 -87 20 -117 41 -20 13 -48 27 -62 30 -68 13 -108 27 -126 44
-11 11 -35 21 -53 24 -17 3 -46 8 -63 11 -17 3 -36 7 -42 8 -7 1 -18 9 -25 17
-12 13 -13 13 -7 0 5 -13 4 -13 -7 0 -18 22 -67 41 -111 43 -20 1 -37 6 -37
10 0 5 -4 5 -10 2 -5 -3 -10 -1 -10 6 0 7 -3 9 -7 6 -3 -4 -12 1 -20 11 -10
11 -12 12 -8 2 6 -13 5 -13 -7 0 -7 8 -20 17 -28 18 -8 2 -24 6 -35 9 -24 5
-73 14 -97 16 -9 1 -15 4 -12 8 8 14 -88 49 -140 52 -30 1 -52 5 -50 8 2 4 -3
10 -12 13 -10 4 -13 2 -9 -7 4 -6 1 -5 -7 3 -25 29 -90 53 -150 55 -20 1 -44
8 -54 16 -16 12 -17 12 -9 -1 4 -8 -3 -6 -16 6 -34 29 -76 44 -136 46 -28 2
-49 6 -46 11 2 4 -5 7 -16 7 -12 0 -21 4 -21 8 0 16 -74 38 -153 47 -67 7 -70
8 -85 25 -12 13 -13 13 -6 0 6 -13 4 -12 -12 1 -27 22 -72 38 -124 43 -25 3
-56 8 -70 11 -14 4 -33 8 -42 8 -9 1 -15 4 -12 8 4 7 -48 31 -76 36 -21 4
-112 15 -127 16 -7 0 -13 4 -13 9 0 5 -4 7 -9 3 -5 -3 -12 -1 -16 5 -4 6 -11
8 -16 5 -5 -4 -9 -2 -9 2 0 12 -78 34 -136 38 -27 2 -63 8 -81 14 -17 5 -34 7
-37 3 -3 -3 -6 0 -6 7 0 7 -4 9 -10 6 -5 -3 -10 -1 -10 5 0 6 -4 9 -9 6 -5 -4
-11 -2 -13 3 -3 11 -39 19 -113 27 -60 6 -75 9 -97 18 -9 4 -22 4 -29 0 -7 -4
-9 -3 -5 4 10 16 -60 38 -149 46 -62 6 -76 9 -94 20 -10 7 -12 5 -6 -3 4 -7
-5 -5 -21 5 -22 14 -27 15 -19 3 6 -8 2 -6 -7 4 -10 11 -18 16 -18 12 0 -4 -7
-2 -15 5 -8 6 -19 9 -25 5 -5 -3 -10 -2 -10 3 0 5 -6 9 -12 9 -7 1 -47 5 -88
9 -41 4 -83 7 -92 8 -10 0 -18 4 -18 9 0 4 -4 6 -8 3 -5 -3 -23 4 -41 15 -18
11 -29 14 -25 7 6 -11 5 -11 -8 0 -21 17 -49 23 -135 26 -39 2 -76 6 -81 10
-6 3 -22 7 -36 8 -14 1 -26 6 -26 11 0 5 -7 4 -16 -3 -12 -11 -15 -11 -12 1 2
8 -3 13 -9 12 -7 -2 -13 1 -13 5 0 5 -6 9 -12 10 -7 0 -24 3 -38 6 -14 3 -56
9 -95 12 -69 5 -81 7 -140 20 -16 3 -36 7 -42 7 -7 0 -13 5 -13 10 0 5 -7 4
-16 -3 -12 -11 -15 -11 -12 -1 2 8 -4 15 -12 17 -8 1 -26 6 -40 9 -14 3 -54 8
-90 10 -71 4 -140 14 -154 23 -5 3 -6 -1 -1 -9 7 -11 6 -12 -7 -2 -8 7 -18 10
-21 6 -4 -3 -7 -2 -7 4 0 5 -7 10 -15 11 -8 1 -22 3 -30 4 -8 1 -15 4 -15 8 0
4 -6 7 -12 8 -7 0 -24 3 -38 7 -21 5 -86 10 -227 18 -13 0 -23 5 -23 10 0 5
-8 3 -17 -4 -11 -10 -14 -10 -9 -1 4 7 1 12 -9 12 -10 0 -14 -5 -10 -12 4 -7
-1 -4 -9 6 -9 11 -16 17 -16 13 0 -3 -16 1 -36 9 -27 11 -34 12 -28 2 6 -10 5
-11 -7 -1 -21 17 -70 25 -179 28 -52 2 -95 4 -95 5 0 1 -15 3 -33 5 -19 2 -40
6 -48 9 -9 4 -12 2 -8 -5 3 -6 -6 -3 -22 7 -21 14 -26 15 -19 4 8 -13 6 -13
-8 -2 -9 8 -22 10 -28 6 -8 -5 -9 -3 -4 6 6 10 4 12 -8 7 -10 -3 -17 -3 -17 2
0 4 -6 8 -12 8 -7 0 -31 3 -53 7 -22 4 -78 9 -125 12 -124 6 -166 10 -178 18
-7 4 -12 1 -12 -6 0 -9 -3 -9 -8 -2 -4 6 -19 10 -34 10 -16 -1 -28 2 -28 7 0
5 -8 3 -17 -4 -9 -8 -14 -9 -10 -3 4 7 0 15 -9 18 -10 4 -13 2 -8 -7 6 -9 5
-9 -7 0 -8 6 -30 14 -49 17 -19 3 -46 8 -60 11 -14 3 -81 8 -150 10 -69 3
-134 7 -145 9 -11 2 -26 -2 -34 -8 -10 -7 -13 -8 -8 0 4 7 -6 11 -26 12 -40 2
-74 9 -89 18 -7 5 -8 3 -3 -7 7 -11 6 -12 -6 -3 -24 18 -51 26 -43 11 6 -9 4
-9 -7 -1 -23 17 -51 26 -43 12 5 -7 3 -8 -7 -2 -30 19 -205 32 -491 38 -43 0
-78 5 -78 10 0 5 -6 4 -13 -3 -8 -6 -17 -7 -23 -2 -15 15 -81 20 -95 7 -9 -8
-10 -8 -6 0 9 17 -18 25 -33 11 -9 -9 -11 -9 -7 -1 5 8 -7 13 -32 16 -22 2
-37 -1 -34 -6 4 -5 0 -6 -8 0 -29 18 -107 23 -394 29 -132 3 -240 5 -240 6 0
0 -38 2 -85 4 -47 1 -85 3 -85 4 0 7 -154 3 -165 -4 -8 -5 -11 -4 -6 3 4 8 -5
10 -28 8 -20 -1 -38 2 -40 8 -3 7 -5 6 -5 -1 -1 -9 -8 -10 -23 -5 -29 10 -59
9 -77 -2 -10 -6 -12 -5 -7 2 10 16 -7 15 -23 0 -11 -10 -13 -10 -7 0 4 6 3 12
-1 12 -5 0 -15 -6 -22 -12 -11 -10 -13 -10 -7 0 8 14 7 14 -109 18 -44 1 -87
5 -95 8 -8 3 -31 5 -50 5 -19 0 -138 2 -265 5 -308 7 -866 12 -870 7z"/>
</g>
</svg>
