<svg width="22" height="16" viewBox="0 0 22 16" fill="none" xmlns="http://www.w3.org/2000/svg">
<path d="M20.6123 2.17116C20.611 2.17116 20.6097 2.17116 20.6085 2.17116H19.2942V1.73009C19.3013 1.55551 19.1862 1.39861 19.0151 1.34985C18.1027 1.11534 17.1632 0.997751 16.22 1.00003C14.6693 1.00003 12.5565 1.34225 10.9942 2.90121C9.4435 1.32704 7.31518 1.00003 5.76837 1.00003C4.82516 0.997751 3.88564 1.11534 2.97325 1.34985C2.80219 1.39861 2.68705 1.55551 2.69413 1.73009V2.16736H1.38767C1.17358 2.16736 1 2.33761 1 2.54759V14.6923C1 14.9023 1.17358 15.0726 1.38767 15.0726C1.45425 15.0724 1.51967 15.0554 1.57763 15.0231C1.6164 15.0041 5.49312 12.9242 10.905 14.2627H10.9632H10.9981C11.029 14.2663 11.0602 14.2663 11.0911 14.2627C16.5185 12.9128 20.3952 14.9889 20.4185 15.0231C20.5384 15.0911 20.6862 15.0911 20.8062 15.0231C20.9254 14.9556 20.9992 14.8312 21 14.6961V2.5514C21 2.34141 20.8265 2.17116 20.6123 2.17116ZM1.77534 14.0878V2.93163H2.70188V12.4679C2.69946 12.6779 2.87105 12.8501 3.08514 12.8525C3.10608 12.8527 3.12701 12.8513 3.1477 12.8482C3.9497 12.7281 4.7594 12.6645 5.57065 12.6581C6.69442 12.639 7.81348 12.8047 8.88137 13.1486C6.46981 12.8625 4.0237 13.1858 1.77534 14.0878ZM5.57065 11.9014C4.86553 11.903 4.16122 11.9474 3.46172 12.0345V2.03047C4.21651 1.86554 4.9873 1.78137 5.76061 1.77952C7.21051 1.77952 9.21089 2.10652 10.5988 3.64267L10.6104 13.1143C9.80403 12.5972 8.23008 11.9014 5.57065 11.9014ZM11.3857 3.64267C12.7736 2.12173 14.774 1.77952 16.2239 1.77952C16.9971 1.78175 17.7679 1.86588 18.5228 2.03047V12.0345C17.8272 11.9466 17.1268 11.9009 16.4255 11.8976C13.7815 11.8976 12.2037 12.5934 11.3857 13.1105V3.64267ZM20.2208 14.0878C17.9676 13.1834 15.5159 12.86 13.0992 13.1486C14.1722 12.8035 15.2966 12.6377 16.4255 12.6581C17.2418 12.6625 18.0567 12.7248 18.8639 12.8444C19.0756 12.8759 19.2733 12.7331 19.3054 12.5255C19.3085 12.5052 19.31 12.4847 19.3097 12.4641V2.93163H20.2363L20.2208 14.0878Z" fill="white" stroke="white" stroke-width="0.6"/>
</svg>
