<?xml version="1.0" standalone="no"?>
<!DOCTYPE svg PUBLIC "-//W3C//DTD SVG 20010904//EN"
 "http://www.w3.org/TR/2001/REC-SVG-20010904/DTD/svg10.dtd">
<svg version="1.0" xmlns="http://www.w3.org/2000/svg"
 width="54" height="54" viewBox="0 0 512.000000 512.000000"
 preserveAspectRatio="xMidYMid meet">

<g transform="translate(0.000000,512.000000) scale(0.100000,-0.100000)"
fill="#434343" stroke="none">
<path d="M1705 5101 c-54 -34 -1033 -1024 -1040 -1051 -3 -14 -4 -810 -3
-1770 l3 -1745 24 -38 c13 -21 42 -50 64 -65 l41 -27 640 -3 640 -3 191 -188
c195 -194 219 -211 295 -211 76 0 100 17 295 211 l191 188 640 3 640 3 41 27
c22 15 51 44 64 65 l24 38 0 2226 0 2225 -27 41 c-15 22 -44 51 -65 64 l-38
24 -1295 3 c-1258 2 -1296 2 -1325 -17z m2555 -2341 l0 -2160 -506 0 -506 0
45 49 c136 153 43 351 -164 351 l-68 0 -3 343 -3 344 -27 40 c-15 22 -44 51
-65 64 l-38 24 -366 0 -365 0 -41 -27 c-22 -15 -51 -44 -64 -65 -24 -38 -24
-40 -27 -380 l-3 -343 -65 0 c-104 0 -177 -42 -215 -125 -35 -75 -18 -151 49
-226 l44 -49 -506 0 -506 0 0 1660 0 1659 433 3 433 3 41 27 c22 15 51 44 64
65 l24 38 3 433 3 432 1199 0 1200 0 0 -2160z m-2600 1685 l0 -325 -327 0
-328 0 325 325 c179 179 326 325 327 325 2 0 3 -146 3 -325z m1200 -3195 c0
-265 3 -376 12 -395 20 -44 55 -55 180 -55 l113 0 -303 -302 -302 -303 -302
303 -303 302 112 0 c66 0 123 5 138 12 54 24 55 36 55 438 l0 370 300 0 300 0
0 -370z"/>
<path d="M1311 3656 c-67 -37 -65 -143 4 -174 20 -9 321 -12 1246 -12 1036 0
1224 2 1248 14 66 35 66 137 0 172 -40 20 -2461 21 -2498 0z"/>
<path d="M1311 3206 c-87 -48 -50 -186 49 -186 51 0 100 49 100 99 0 75 -83
124 -149 87z"/>
<path d="M1761 3206 c-67 -37 -65 -143 4 -174 19 -9 271 -12 1021 -12 842 0
999 2 1023 14 66 35 66 137 0 172 -40 20 -2011 20 -2048 0z"/>
<path d="M1311 2756 c-67 -37 -65 -143 4 -174 20 -9 321 -12 1246 -12 1036 0
1224 2 1248 14 66 35 66 137 0 172 -40 20 -2461 21 -2498 0z"/>
<path d="M1311 2306 c-67 -37 -65 -143 4 -174 37 -17 1253 -17 1290 0 29 13
55 55 55 88 0 33 -26 75 -55 88 -40 18 -1261 16 -1294 -2z"/>
</g>
</svg>
