<svg width="50" height="43" viewBox="0 0 50 43" fill="none" xmlns="http://www.w3.org/2000/svg">
<path d="M45.0626 11H4.93737C2.20848 11.0162 0.00407452 13.2315 0.0013786 15.9605C-0.000459533 15.9882 -0.000459533 16.0161 0.0013786 16.0438L2.86886 37.4397C2.90367 40.1552 5.11359 42.3389 7.82937 42.3414H42.1902C44.9058 42.3389 47.1159 40.1552 47.1507 37.4397L49.9986 16.0438C50.0004 16.0161 50.0004 15.9882 49.9986 15.9605C49.996 13.2315 47.7916 11.0162 45.0626 11Z" fill="url(#paint0_linear_0_1)"/>
<path d="M41.4783 4.00988H25.3616L22.1755 0.220874C22.0548 0.0757842 21.8739 -0.00558371 21.6853 0.000298313H8.67626C6.64709 0.00299424 5.0027 1.64739 5 3.67656V7.21068H6.22542H45.1203C44.8817 5.38088 43.3236 4.01159 41.4783 4.00988Z" fill="#9A9A9A"/>
<defs>
<linearGradient id="paint0_linear_0_1" x1="25" y1="11" x2="25" y2="42.3414" gradientUnits="userSpaceOnUse">
<stop stop-color="#9A9A9A"/>
<stop offset="0.875" stop-color="#9A9A9A" stop-opacity="0.5"/>
<stop offset="0.973958" stop-color="#9A9A9A" stop-opacity="0.513021"/>
</linearGradient>
</defs>
</svg>
